<svg width="46" height="46" viewBox="0 0 46 46" fill="none" xmlns="http://www.w3.org/2000/svg">
<path d="M37.0413 11.0738L37.8381 10.5414L37.0413 11.0738ZM37.0413 31.0925L37.8381 31.625L37.0413 31.0925ZM34.926 33.2078L35.4584 34.0046L34.926 33.2078ZM26.8333 34.4972L26.8291 33.5389C26.3015 33.5412 25.875 33.9696 25.875 34.4972H26.8333ZM26.8333 34.4998L27.6905 34.9284C27.757 34.7953 27.7917 34.6486 27.7917 34.4998H26.8333ZM21.2857 38.7378L20.4285 39.1664L21.2857 38.7378ZM19.1667 34.4998H18.2083C18.2083 34.6486 18.243 34.7953 18.3095 34.9284L19.1667 34.4998ZM19.1667 34.4972H20.125C20.125 33.9696 19.6985 33.5412 19.1708 33.5389L19.1667 34.4972ZM11.074 33.2078L10.5415 34.0046H10.5415L11.074 33.2078ZM8.95872 31.0925L8.1619 31.625H8.1619L8.95872 31.0925ZM8.95872 11.0738L9.75555 11.6062L8.95872 11.0738ZM11.074 8.95857L10.5415 8.16175L10.5415 8.16175L11.074 8.95857ZM34.926 8.95857L35.4584 8.16175V8.16175L34.926 8.95857ZM39.2917 21.0832C39.2917 18.4112 39.2928 16.3351 39.1252 14.6877C38.956 13.0243 38.6069 11.6919 37.8381 10.5414L36.2444 11.6062C36.7677 12.3894 37.0646 13.3698 37.2184 14.8817C37.3738 16.4096 37.375 18.3713 37.375 21.0832H39.2917ZM37.8381 31.625C38.6069 30.4744 38.956 29.142 39.1252 27.4786C39.2928 25.8312 39.2917 23.7551 39.2917 21.0832H37.375C37.375 23.795 37.3738 25.7567 37.2184 27.2846C37.0646 28.7965 36.7677 29.777 36.2444 30.5601L37.8381 31.625ZM35.4584 34.0046C36.4002 33.3753 37.2088 32.5667 37.8381 31.625L36.2444 30.5601C35.755 31.2926 35.1261 31.9215 34.3936 32.4109L35.4584 34.0046ZM26.8375 35.4556C28.9007 35.4466 30.5616 35.4072 31.9283 35.2183C33.3103 35.0273 34.4535 34.6761 35.4584 34.0046L34.3936 32.4109C33.7093 32.8682 32.8739 33.1527 31.6658 33.3197C30.4423 33.4888 28.9015 33.5299 26.8291 33.5389L26.8375 35.4556ZM27.7917 34.4998V34.4972H25.875V34.4998H27.7917ZM25.5715 39.1664L27.6905 34.9284L25.9762 34.0712L23.8571 38.3092L25.5715 39.1664ZM20.4285 39.1664C21.488 41.2854 24.512 41.2854 25.5715 39.1664L23.8571 38.3092C23.504 39.0156 22.496 39.0156 22.1428 38.3092L20.4285 39.1664ZM18.3095 34.9284L20.4285 39.1664L22.1428 38.3092L20.0238 34.0712L18.3095 34.9284ZM18.2083 34.4972V34.4998H20.125V34.4972H18.2083ZM10.5415 34.0046C11.5465 34.6761 12.6897 35.0273 14.0717 35.2183C15.4384 35.4072 17.0992 35.4466 19.1625 35.4556L19.1708 33.5389C17.0985 33.5299 15.5576 33.4888 14.3342 33.3197C13.1261 33.1527 12.2907 32.8682 11.6064 32.4109L10.5415 34.0046ZM8.1619 31.625C8.79116 32.5667 9.59976 33.3753 10.5415 34.0046L11.6064 32.4109C10.8739 31.9215 10.245 31.2926 9.75555 30.5601L8.1619 31.625ZM6.70832 21.0832C6.70832 23.7551 6.70716 25.8312 6.87475 27.4786C7.04397 29.142 7.39311 30.4744 8.1619 31.625L9.75555 30.5601C9.23227 29.777 8.93538 28.7965 8.78158 27.2846C8.62615 25.7567 8.62499 23.795 8.62499 21.0832H6.70832ZM8.1619 10.5414C7.39311 11.6919 7.04397 13.0243 6.87475 14.6877C6.70716 16.3351 6.70832 18.4112 6.70832 21.0832H8.62499C8.62499 18.3713 8.62615 16.4096 8.78158 14.8817C8.93538 13.3698 9.23227 12.3894 9.75555 11.6062L8.1619 10.5414ZM10.5415 8.16175C9.59976 8.79101 8.79116 9.59961 8.1619 10.5414L9.75555 11.6062C10.245 10.8737 10.8739 10.2448 11.6064 9.7554L10.5415 8.16175ZM21.0833 6.70817C18.4114 6.70817 16.3353 6.70701 14.6879 6.8746C13.0244 7.04382 11.6921 7.39296 10.5415 8.16175L11.6064 9.7554C12.3895 9.23211 13.37 8.93523 14.8819 8.78142C16.4098 8.626 18.3715 8.62484 21.0833 8.62484V6.70817ZM24.9167 6.70817H21.0833V8.62484H24.9167V6.70817ZM35.4584 8.16175C34.3079 7.39296 32.9755 7.04382 31.3121 6.8746C29.6647 6.70701 27.5886 6.70817 24.9167 6.70817V8.62484C27.6285 8.62484 29.5902 8.626 31.1181 8.78142C32.63 8.93523 33.6105 9.23211 34.3936 9.7554L35.4584 8.16175ZM37.8381 10.5414C37.2088 9.59961 36.4002 8.79101 35.4584 8.16175L34.3936 9.7554C35.1261 10.2448 35.755 10.8737 36.2444 11.6062L37.8381 10.5414Z" fill="#797979"/>
<circle cx="30.6667" cy="21.0832" r="1.91667" fill="#797979"/>
<circle cx="23" cy="21.0832" r="1.91667" fill="#797979"/>
<circle cx="15.3333" cy="21.0832" r="1.91667" fill="#797979"/>
</svg>
