<svg width="46" height="46" viewBox="0 0 46 46" fill="none" xmlns="http://www.w3.org/2000/svg">
<path d="M16.2917 23.9585L29.7083 23.9585" stroke="#797979" stroke-width="1.91667" stroke-linecap="round"/>
<path d="M16.2917 29.7085L23.9583 29.7085" stroke="#797979" stroke-width="1.91667" stroke-linecap="round"/>
<path d="M10.5417 11.3085C10.5417 9.69835 10.5417 8.89327 10.855 8.27827C11.1307 7.73731 11.5705 7.29749 12.1114 7.02185C12.7264 6.7085 13.5315 6.7085 15.1417 6.7085H23.9696C24.6728 6.7085 25.0244 6.7085 25.3553 6.78793C25.6487 6.85836 25.9291 6.97452 26.1863 7.13216C26.4765 7.30995 26.7251 7.55857 27.2223 8.05581L34.111 14.9445C34.6083 15.4418 34.8569 15.6904 35.0347 15.9805C35.1923 16.2377 35.3085 16.5182 35.3789 16.8115C35.4583 17.1424 35.4583 17.494 35.4583 18.1972V34.6918C35.4583 36.302 35.4583 37.1071 35.145 37.7221C34.8693 38.263 34.4295 38.7028 33.8886 38.9785C33.2736 39.2918 32.4685 39.2918 30.8583 39.2918H15.1417C13.5315 39.2918 12.7264 39.2918 12.1114 38.9785C11.5705 38.7028 11.1307 38.263 10.855 37.7221C10.5417 37.1071 10.5417 36.302 10.5417 34.6918V11.3085Z" stroke="#797979" stroke-width="1.91667"/>
<path d="M23.9583 6.7085V13.6085C23.9583 15.2186 23.9583 16.0237 24.2717 16.6387C24.5473 17.1797 24.9872 17.6195 25.5281 17.8951C26.1431 18.2085 26.9482 18.2085 28.5583 18.2085H35.4583" stroke="#797979" stroke-width="1.91667"/>
</svg>
