<svg width="46" height="46" viewBox="0 0 46 46" fill="none" xmlns="http://www.w3.org/2000/svg">
<path fill-rule="evenodd" clip-rule="evenodd" d="M19.5261 17.9188C19 19.0625 19 20.3637 19 22.9661V31.0935C19 34.7076 19 36.5146 20.1228 37.6374C21.1416 38.6562 22.7238 38.7505 25.7083 38.7592V29.1774C25.7083 27.0603 27.4246 25.3441 29.5417 25.3441H35.2917C37.4088 25.3441 39.125 27.0603 39.125 29.1774V38.7592C42.1095 38.7505 43.6918 38.6562 44.7106 37.6374C45.8333 36.5146 45.8333 34.7076 45.8333 31.0935V22.9661C45.8333 20.3637 45.8333 19.0625 45.3073 17.9188C44.7812 16.775 43.7933 15.9282 41.8174 14.2346L39.9008 12.5917C36.3294 9.53058 34.5437 8 32.4167 8C30.2896 8 28.5039 9.53058 24.9326 12.5917L23.0159 14.2346C21.04 15.9282 20.0521 16.775 19.5261 17.9188ZM35.2917 38.7601V29.1774H29.5417V38.7601H35.2917Z" fill="#98C198"/>
</svg>
