<svg width="34" height="35" viewBox="0 0 34 35" fill="none" xmlns="http://www.w3.org/2000/svg">
<path d="M31.0413 5.0738L31.8381 4.54138L31.0413 5.0738ZM31.0413 25.0925L31.8381 25.625L31.0413 25.0925ZM28.926 27.2078L29.4584 28.0046L28.926 27.2078ZM20.8333 28.4972L20.8291 27.5389C20.3015 27.5412 19.875 27.9696 19.875 28.4972H20.8333ZM20.8333 28.4998L21.6905 28.9284C21.757 28.7953 21.7917 28.6486 21.7917 28.4998H20.8333ZM15.2857 32.7378L14.4285 33.1664L15.2857 32.7378ZM13.1667 28.4998H12.2083C12.2083 28.6486 12.243 28.7953 12.3095 28.9284L13.1667 28.4998ZM13.1667 28.4972H14.125C14.125 27.9696 13.6985 27.5412 13.1708 27.5389L13.1667 28.4972ZM5.07395 27.2078L4.54153 28.0046H4.54153L5.07395 27.2078ZM2.95872 25.0925L2.1619 25.625H2.1619L2.95872 25.0925ZM2.95872 5.0738L3.75555 5.60622L2.95872 5.0738ZM5.07395 2.95857L4.54153 2.16175L4.54153 2.16175L5.07395 2.95857ZM28.926 2.95857L29.4584 2.16175V2.16175L28.926 2.95857ZM33.2917 15.0832C33.2917 12.4112 33.2928 10.3351 33.1252 8.68773C32.956 7.02429 32.6069 5.69194 31.8381 4.54138L30.2444 5.60622C30.7677 6.38937 31.0646 7.36982 31.2184 8.8817C31.3738 10.4096 31.375 12.3713 31.375 15.0832H33.2917ZM31.8381 25.625C32.6069 24.4744 32.956 23.142 33.1252 21.4786C33.2928 19.8312 33.2917 17.7551 33.2917 15.0832H31.375C31.375 17.795 31.3738 19.7567 31.2184 21.2846C31.0646 22.7965 30.7677 23.777 30.2444 24.5601L31.8381 25.625ZM29.4584 28.0046C30.4002 27.3753 31.2088 26.5667 31.8381 25.625L30.2444 24.5601C29.755 25.2926 29.1261 25.9215 28.3936 26.4109L29.4584 28.0046ZM20.8375 29.4556C22.9007 29.4466 24.5616 29.4072 25.9283 29.2183C27.3103 29.0273 28.4535 28.6761 29.4584 28.0046L28.3936 26.4109C27.7093 26.8682 26.8739 27.1527 25.6658 27.3197C24.4423 27.4888 22.9015 27.5299 20.8291 27.5389L20.8375 29.4556ZM21.7917 28.4998V28.4972H19.875V28.4998H21.7917ZM19.5715 33.1664L21.6905 28.9284L19.9762 28.0712L17.8571 32.3092L19.5715 33.1664ZM14.4285 33.1664C15.488 35.2854 18.512 35.2854 19.5715 33.1664L17.8571 32.3092C17.504 33.0156 16.496 33.0156 16.1428 32.3092L14.4285 33.1664ZM12.3095 28.9284L14.4285 33.1664L16.1428 32.3092L14.0238 28.0712L12.3095 28.9284ZM12.2083 28.4972V28.4998H14.125V28.4972H12.2083ZM4.54153 28.0046C5.5465 28.6761 6.68966 29.0273 8.0717 29.2183C9.43835 29.4072 11.0992 29.4466 13.1625 29.4556L13.1708 27.5389C11.0985 27.5299 9.55764 27.4888 8.33415 27.3197C7.12606 27.1527 6.29066 26.8682 5.60637 26.4109L4.54153 28.0046ZM2.1619 25.625C2.79116 26.5667 3.59976 27.3753 4.54153 28.0046L5.60637 26.4109C4.87389 25.9215 4.24498 25.2926 3.75555 24.5601L2.1619 25.625ZM0.708323 15.0832C0.708323 17.7551 0.707165 19.8312 0.874752 21.4786C1.04397 23.142 1.39311 24.4744 2.1619 25.625L3.75555 24.5601C3.23227 23.777 2.93538 22.7965 2.78158 21.2846C2.62615 19.7567 2.62499 17.795 2.62499 15.0832H0.708323ZM2.1619 4.54138C1.39311 5.69194 1.04397 7.02429 0.874752 8.68773C0.707165 10.3351 0.708323 12.4112 0.708323 15.0832H2.62499C2.62499 12.3713 2.62615 10.4096 2.78158 8.8817C2.93538 7.36982 3.23227 6.38937 3.75555 5.60622L2.1619 4.54138ZM4.54153 2.16175C3.59976 2.79101 2.79116 3.59961 2.1619 4.54138L3.75555 5.60622C4.24498 4.87374 4.87389 4.24483 5.60637 3.7554L4.54153 2.16175ZM15.0833 0.708171C12.4114 0.708171 10.3353 0.707012 8.68788 0.874599C7.02445 1.04382 5.6921 1.39296 4.54153 2.16175L5.60637 3.7554C6.38952 3.23211 7.36997 2.93523 8.88185 2.78142C10.4098 2.626 12.3715 2.62484 15.0833 2.62484V0.708171ZM18.9167 0.708171H15.0833V2.62484H18.9167V0.708171ZM29.4584 2.16175C28.3079 1.39296 26.9755 1.04382 25.3121 0.874599C23.6647 0.707012 21.5886 0.708171 18.9167 0.708171V2.62484C21.6285 2.62484 23.5902 2.626 25.1181 2.78142C26.63 2.93523 27.6105 3.23211 28.3936 3.7554L29.4584 2.16175ZM31.8381 4.54138C31.2088 3.59961 30.4002 2.79101 29.4584 2.16175L28.3936 3.7554C29.1261 4.24483 29.755 4.87374 30.2444 5.60622L31.8381 4.54138Z" fill="#797979"/>
</svg>
