<svg width="27" height="31" viewBox="0 0 27 31" fill="none" xmlns="http://www.w3.org/2000/svg">
<path fill-rule="evenodd" clip-rule="evenodd" d="M0.526051 9.91875C0 11.0625 0 12.3637 0 14.9661V23.0935C0 26.7076 0 28.5146 1.12276 29.6374C2.14156 30.6562 3.72379 30.7505 6.70834 30.7592V21.1774C6.70834 19.0603 8.42458 17.3441 10.5417 17.3441H16.2917C18.4088 17.3441 20.125 19.0603 20.125 21.1774V30.7592C23.1095 30.7505 24.6918 30.6562 25.7106 29.6374C26.8333 28.5146 26.8333 26.7076 26.8333 23.0935V14.9661C26.8333 12.3637 26.8333 11.0625 26.3073 9.91875C25.7812 8.775 24.7933 7.9282 22.8174 6.2346L20.9008 4.59175C17.3294 1.53058 15.5437 0 13.4167 0C11.2896 0 9.50392 1.53058 5.93257 4.59175L4.0159 6.2346C2.04003 7.9282 1.0521 8.775 0.526051 9.91875ZM16.2917 30.7601V21.1774H10.5417V30.7601H16.2917Z" fill="#98C198"/>
</svg>
