<svg width="45" height="46" viewBox="0 0 45 46" fill="none" xmlns="http://www.w3.org/2000/svg">
<path d="M29.0685 15.3332C29.0685 19.0806 26.1034 22.0832 22.4889 22.0832C18.8744 22.0832 15.9093 19.0806 15.9093 15.3332C15.9093 11.5857 18.8744 8.58317 22.4889 8.58317C26.1034 8.58317 29.0685 11.5857 29.0685 15.3332Z" stroke="#797979" stroke-width="1.83333" stroke-linecap="round"/>
<path d="M9.13725 32.3009C10.3408 27.9527 14.8178 25.875 19.3296 25.875H25.6481C30.1599 25.875 34.637 27.9527 35.8405 32.3009C36.1161 33.2967 36.3354 34.3839 36.4521 35.5446C36.5534 36.5521 35.7236 37.375 34.7111 37.375H10.2667C9.25413 37.375 8.42435 36.5521 8.52562 35.5446C8.64231 34.3839 8.86164 33.2967 9.13725 32.3009Z" stroke="#797979" stroke-width="1.83333" stroke-linecap="round"/>
</svg>
