<svg width="46" height="46" viewBox="0 0 46 46" fill="none" xmlns="http://www.w3.org/2000/svg">
<path d="M27.3125 7.6665H18.6875C12.5887 7.6665 9.53931 7.6665 7.64465 9.59123C5.75 11.516 5.75 14.6138 5.75 20.8094V25.1903C5.75 31.3859 5.75 34.4837 7.64465 36.4084C9.53931 38.3332 12.5887 38.3332 18.6875 38.3332H27.3125C33.4113 38.3332 36.4607 38.3332 38.3553 36.4084C40.25 34.4837 40.25 31.3859 40.25 25.1903V20.8094C40.25 14.6138 40.25 11.516 38.3553 9.59123C36.4607 7.6665 33.4113 7.6665 27.3125 7.6665Z" stroke="#797979" stroke-width="1.91667"/>
<path d="M13.4167 15.3335H19.1667" stroke="#797979" stroke-width="1.91667" stroke-linecap="round"/>
<path d="M36.4167 30.6665H32.5833C30.7763 30.6665 29.8728 30.6665 29.3114 30.1051C28.75 29.5437 28.75 28.6402 28.75 26.8332C28.75 25.0261 28.75 24.1226 29.3114 23.5612C29.8728 22.9998 30.7763 22.9998 32.5833 22.9998H36.4167C38.2237 22.9998 39.1272 22.9998 39.6886 23.5612C40.25 24.1226 40.25 25.0261 40.25 26.8332C40.25 28.6402 40.25 29.5437 39.6886 30.1051C39.1272 30.6665 38.2237 30.6665 36.4167 30.6665Z" stroke="#797979" stroke-width="1.91667"/>
</svg>
