<svg width="164" height="195" viewBox="0 0 164 195" fill="none" xmlns="http://www.w3.org/2000/svg">
<ellipse cx="84.2551" cy="90.4899" rx="71.2757" ry="70.7517" fill="#98C198"/>
<path fill-rule="evenodd" clip-rule="evenodd" d="M83.9759 102.71C88.649 100.345 104.389 91.2617 104.389 76.2087C104.389 64.5586 94.6707 55.1143 82.6828 55.1143C70.695 55.1143 60.9769 64.5586 60.9769 76.2087C60.9769 91.2617 76.7166 100.345 81.3898 102.71C82.2116 103.126 83.154 103.126 83.9759 102.71ZM82.6829 85.2487C87.8205 85.2487 91.9854 81.2011 91.9854 76.2082C91.9854 71.2153 87.8205 67.1677 82.6829 67.1677C77.5452 67.1677 73.3803 71.2153 73.3803 76.2082C73.3803 81.2011 77.5452 85.2487 82.6829 85.2487Z" fill="#7E869E" fill-opacity="0.25"/>
<path d="M83.9759 102.71L83.0766 100.933H83.0766L83.9759 102.71ZM81.3898 102.71L82.2891 100.933L82.2891 100.933L81.3898 102.71ZM102.397 76.2087C102.397 82.9955 98.854 88.5495 94.5377 92.7979C90.2258 97.042 85.3255 99.7947 83.0766 100.933L84.8751 104.487C87.2994 103.26 92.6055 100.288 97.3318 95.6365C102.054 90.9889 106.38 84.475 106.38 76.2087H102.397ZM82.6828 57.1058C93.6248 57.1058 102.397 65.7117 102.397 76.2087H106.38C106.38 63.4054 95.7165 53.1227 82.6828 53.1227V57.1058ZM62.9684 76.2087C62.9684 65.7117 71.7408 57.1058 82.6828 57.1058V53.1227C69.6491 53.1227 58.9854 63.4054 58.9854 76.2087H62.9684ZM82.2891 100.933C80.0401 99.7947 75.1398 97.042 70.8279 92.7979C66.5116 88.5495 62.9684 82.9955 62.9684 76.2087H58.9854C58.9854 84.475 63.312 90.989 68.0339 95.6366C72.7601 100.288 78.0662 103.26 80.4905 104.487L82.2891 100.933ZM83.0766 100.933C82.8201 101.063 82.5455 101.063 82.2891 100.933L80.4905 104.487C81.8777 105.189 83.4879 105.189 84.8751 104.487L83.0766 100.933ZM89.9939 76.2082C89.9939 80.048 86.7747 83.2572 82.6829 83.2572V87.2402C88.8664 87.2402 93.9769 82.3543 93.9769 76.2082H89.9939ZM82.6829 69.1592C86.7747 69.1592 89.9939 72.3684 89.9939 76.2082H93.9769C93.9769 70.0621 88.8664 65.1762 82.6829 65.1762V69.1592ZM75.3719 76.2082C75.3719 72.3684 78.5911 69.1592 82.6829 69.1592V65.1762C76.4994 65.1762 71.3888 70.0621 71.3888 76.2082H75.3719ZM82.6829 83.2572C78.5911 83.2572 75.3719 80.048 75.3719 76.2082H71.3888C71.3888 82.3543 76.4994 87.2402 82.6829 87.2402V83.2572Z" fill="#222222"/>
<path d="M106.851 101.823C109.301 103.198 110.59 104.757 110.59 106.344C110.59 107.931 109.301 109.49 106.851 110.864C104.402 112.238 100.879 113.38 96.6366 114.173C92.3941 114.966 87.5816 115.384 82.6828 115.384C77.784 115.384 72.9715 114.966 68.729 114.173C64.4865 113.38 60.9635 112.238 58.5141 110.864C56.0647 109.49 54.7752 107.931 54.7752 106.344C54.7752 104.757 56.0647 103.198 58.5141 101.823" stroke="#222222" stroke-width="3.98306" stroke-linecap="round"/>
<circle cx="14.5515" cy="12.9251" r="12.054" fill="#98C198"/>
<circle cx="6.69028" cy="127.7" r="6.28904" fill="#98C198"/>
<circle cx="157.627" cy="144.471" r="6.28904" fill="#98C198"/>
<circle cx="145.049" cy="23.9306" r="6.28904" fill="#98C198"/>
<ellipse cx="31.3223" cy="173.819" rx="2.62043" ry="3.14452" fill="#98C198"/>
<circle cx="68.8608" cy="15.0148" r="2.46257" fill="#98C198"/>
<ellipse cx="88.4477" cy="190.59" rx="5.24086" ry="4.19269" fill="#98C198"/>
<circle cx="125.134" cy="163.338" r="2.09635" fill="#98C198"/>
<ellipse cx="4.06983" cy="70.0504" rx="2.62043" ry="2.09635" fill="#98C198"/>
<ellipse cx="131.903" cy="96.2801" rx="2.46257" ry="1.97006" fill="#98C198"/>
</svg>
