<svg width="59" height="68" viewBox="0 0 59 68" fill="none" xmlns="http://www.w3.org/2000/svg">
<ellipse cx="30.2565" cy="31.4271" rx="25.7179" ry="24.8108" fill="#D02B8D"/>
<ellipse cx="5.10571" cy="4.22703" rx="4.34936" ry="4.22703" fill="#D02B8D"/>
<ellipse cx="2.26923" cy="44.4754" rx="2.26923" ry="2.20541" fill="#D02B8D"/>
<ellipse cx="56.7307" cy="50.3568" rx="2.26923" ry="2.20541" fill="#D02B8D"/>
<ellipse cx="52.1926" cy="8.08627" rx="2.26923" ry="2.20541" fill="#D02B8D"/>
<ellipse cx="11.1569" cy="60.6486" rx="0.945513" ry="1.1027" fill="#D02B8D"/>
<ellipse cx="24.7018" cy="4.95975" rx="0.888554" ry="0.863564" fill="#D02B8D"/>
<ellipse cx="31.7692" cy="66.5298" rx="1.89103" ry="1.47027" fill="#D02B8D"/>
<ellipse cx="45.0064" cy="56.9729" rx="0.75641" ry="0.735136" fill="#D02B8D"/>
<ellipse cx="1.32369" cy="24.2596" rx="0.945513" ry="0.735136" fill="#D02B8D"/>
<ellipse cx="47.4486" cy="33.4575" rx="0.888554" ry="0.690851" fill="#D02B8D"/>
<path fill-rule="evenodd" clip-rule="evenodd" d="M19.8231 24.4091C19.4844 25.0601 19.4844 25.9156 19.4844 27.6267V28.4663C19.4844 28.8923 19.8297 29.2376 20.2556 29.2376H20.4215C21.6078 29.2376 22.5694 30.1992 22.5694 31.3855C22.5694 32.5717 21.6078 33.5334 20.4215 33.5334H20.2556C19.8297 33.5334 19.4844 33.8787 19.4844 34.3046V35.1443C19.4844 36.8553 19.4844 37.7109 19.8231 38.3619C20.1075 38.9083 20.5531 39.3539 21.0995 39.6383C21.7505 39.977 22.6061 39.977 24.3171 39.977H35.2186C36.9296 39.977 37.7851 39.977 38.4361 39.6383C38.9826 39.3539 39.4282 38.9083 39.7125 38.3619C40.0513 37.7109 40.0513 36.8553 40.0513 35.1443V34.3046C40.0513 33.8787 39.706 33.5334 39.28 33.5334H39.1141C37.9279 33.5334 36.9663 32.5717 36.9663 31.3855C36.9663 30.1992 37.9279 29.2376 39.1141 29.2376H39.28C39.706 29.2376 40.0513 28.8923 40.0513 28.4663V27.6267C40.0513 25.9156 40.0513 25.0601 39.7125 24.4091C39.4282 23.8627 38.9826 23.417 38.4361 23.1327C37.7851 22.7939 36.9296 22.7939 35.2186 22.7939H24.3171C22.6061 22.7939 21.7505 22.7939 21.0995 23.1327C20.5531 23.417 20.1075 23.8627 19.8231 24.4091ZM29.7118 29.2437C29.5714 29.2761 29.485 29.5097 29.3121 29.9768C29.2137 30.2425 29.1646 30.3753 29.0726 30.4656C29.0468 30.491 29.0188 30.5135 28.989 30.533C28.8826 30.6025 28.7499 30.6153 28.4845 30.6411C28.0351 30.6847 27.8104 30.7065 27.7418 30.8454C27.7276 30.8741 27.7179 30.9053 27.7132 30.9375C27.6905 31.093 27.8557 31.2559 28.186 31.5816L28.2777 31.6721L28.2777 31.6721C28.4322 31.8244 28.5094 31.9005 28.5541 31.9955C28.5809 32.0525 28.5988 32.1139 28.6072 32.1772C28.6213 32.2828 28.5987 32.3932 28.5534 32.6141L28.5373 32.6931C28.4562 33.0893 28.4156 33.2873 28.4662 33.3847C28.5117 33.4722 28.5955 33.5282 28.688 33.533C28.791 33.5383 28.9361 33.4101 29.2264 33.1538C29.4176 32.9849 29.5133 32.9004 29.6194 32.8674C29.7164 32.8373 29.8193 32.8373 29.9163 32.8674C30.0225 32.9004 30.1181 32.9849 30.3093 33.1538C30.5996 33.4101 30.7447 33.5383 30.8477 33.533C30.9402 33.5282 31.024 33.4722 31.0695 33.3847C31.1201 33.2873 31.0795 33.0893 30.9984 32.6931L30.9823 32.6141C30.9371 32.3932 30.9144 32.2828 30.9285 32.1772C30.9369 32.1139 30.9549 32.0525 30.9817 31.9955C31.0263 31.9005 31.1035 31.8244 31.258 31.6721L31.3497 31.5816C31.6801 31.2559 31.8452 31.093 31.8225 30.9375C31.8178 30.9053 31.8081 30.8741 31.7939 30.8454C31.7253 30.7065 31.5006 30.6847 31.0513 30.6411C30.7858 30.6153 30.6531 30.6025 30.5468 30.533C30.5169 30.5135 30.4889 30.491 30.4631 30.4656C30.3711 30.3753 30.322 30.2425 30.2237 29.9768L30.2237 29.9768C30.0508 29.5097 29.9643 29.2761 29.8239 29.2437C29.7869 29.2352 29.7488 29.2352 29.7118 29.2437Z" fill="white"/>
</svg>
